<svg xmlns="http://www.w3.org/2000/svg" viewBox="0 0 286.22 116"><defs><style>.cls-1{fill:none;}.cls-2{fill:#ef3f3d;}.cls-3{fill:#fff;}</style></defs><title>Asset 1</title><g id="Layer_2" data-name="Layer 2"><g id="Campaign_LOGO"><path class="cls-1" d="M228.38,16.45H56.5C35.1,16.45,17.6,35.14,17.6,58h0c0,22.85,17.5,41.55,38.9,41.55H228.38c21.4,0,38.9-18.7,38.9-41.55h0C267.28,35.14,249.78,16.45,228.38,16.45Z"/><path class="cls-2" d="M231.92,0H54.3C24.43,0,0,26.1,0,58H0c0,31.9,24.43,58,54.3,58H231.92c29.86,0,54.3-26.1,54.3-58h0C286.22,26.1,261.78,0,231.92,0Z"/><path class="cls-3" d="M268,58c0,22.85-17.51,41.55-38.9,41.55H57.17c-21.4,0-38.9-18.7-38.9-41.55h0c0-22.86,17.5-41.55,38.9-41.55H229.05C250.44,16.45,268,35.14,268,58Z"/><path class="cls-2" d="M90.45,67.05l.93-1.8a10.89,10.89,0,0,0,7.32,2.69c4.16,0,6-1.74,6-3.93,0-6.09-13.68-2.35-13.68-10.57,0-3.26,2.54-6.09,8.19-6.09a12.47,12.47,0,0,1,6.88,2l-.79,1.87a11.39,11.39,0,0,0-6.09-1.84c-4.06,0-5.87,1.81-5.87,4,0,6.09,13.67,2.41,13.67,10.5,0,3.27-2.6,6.06-8.28,6.06C95.37,69.94,92.1,68.77,90.45,67.05Z"/><path class="cls-2" d="M124.22,59.41V69.75h-2.16v-2.6c-1,1.71-3,2.76-5.74,2.76-3.78,0-6.09-2-6.09-4.85,0-2.57,1.65-4.73,6.44-4.73H122v-1c0-2.85-1.62-4.41-4.73-4.41a8.51,8.51,0,0,0-5.55,2l-1-1.68a10.59,10.59,0,0,1,6.79-2.25C121.78,52.94,124.22,55.09,124.22,59.41ZM122,64.74V62h-5.24c-3.23,0-4.28,1.27-4.28,3,0,1.94,1.55,3.14,4.22,3.14A5.34,5.34,0,0,0,122,64.74Z"/><path class="cls-2" d="M132.92,51.1v2h5.14V55H133V69.75h-2.25V55h-3V53.06h3V51c0-3,1.78-5,5.05-5a5.3,5.3,0,0,1,3.33,1.05l-.76,1.68a3.84,3.84,0,0,0-2.48-.82C133.94,48,132.92,49,132.92,51.1Z"/><path class="cls-2" d="M155.36,62.11h-14c.25,3.48,2.92,5.8,6.56,5.8a6.58,6.58,0,0,0,5.11-2.19l1.27,1.46a8.21,8.21,0,0,1-6.44,2.73c-5.2,0-8.75-3.55-8.75-8.5s3.45-8.47,8.15-8.47,8.09,3.46,8.09,8.47C155.39,61.6,155.36,61.85,155.36,62.11Zm-14-1.69h11.83a5.93,5.93,0,0,0-11.83,0Z"/><path class="cls-2" d="M179,47.54V69.75h-2.31V59.5h-13.9V69.75h-2.35V47.54h2.35v9.9h13.9v-9.9Z"/><path class="cls-2" d="M200.84,53.06V69.75h-2.16v-3a6.63,6.63,0,0,1-6,3.2c-4.25,0-7.05-2.38-7.05-7.17V53.06h2.26v9.46c0,3.55,1.84,5.36,5,5.36,3.49,0,5.68-2.25,5.68-6.06V53.06Z"/><path class="cls-2" d="M224.07,61.41a8.1,8.1,0,0,1-8.31,8.5,7.23,7.23,0,0,1-6.44-3.46v3.3h-2.16V46.21h2.26v10a7.27,7.27,0,0,1,6.34-3.3A8.07,8.07,0,0,1,224.07,61.41Zm-2.25,0a6.13,6.13,0,0,0-6.22-6.51c-3.55,0-6.22,2.6-6.22,6.51s2.67,6.5,6.22,6.5A6.13,6.13,0,0,0,221.82,61.41Z"/><path class="cls-2" d="M226.37,67.85l1-1.78a10.07,10.07,0,0,0,5.94,1.87c3.17,0,4.47-1.08,4.47-2.72,0-4.35-10.82-.92-10.82-7.52,0-2.73,2.35-4.76,6.6-4.76a11.32,11.32,0,0,1,5.9,1.55l-1,1.81a8.61,8.61,0,0,0-4.92-1.43c-3,0-4.35,1.18-4.35,2.76,0,4.51,10.82,1.11,10.82,7.52,0,2.89-2.54,4.76-6.88,4.76A11.17,11.17,0,0,1,226.37,67.85Z"/><path class="cls-3" d="M80.33,39.81a25.72,25.72,0,1,0,0,36.37A25.72,25.72,0,0,0,80.33,39.81Z"/><path class="cls-2" d="M71.35,60.91l.24-.25a12.6,12.6,0,0,0,3.21-10.8l-6.69,6.69c-.09.11-.2.22-.3.33h0l-.32.3L62.37,62.3,60,59.88l-2.78-2.79-.23-.21a7.69,7.69,0,1,1,13-7l3.68-3.68A12.63,12.63,0,1,0,53.15,60.67l0,0,.55.55,2.43,2.43,2.42,2.42L56.66,68l-4,4,3.8,3.8,5.92-5.92,5.42,5.43,3.8-3.8-5.42-5.43L71.24,61Z"/></g></g></svg>