<?xml version="1.0" encoding="utf-8"?>
<!-- Generator: Adobe Illustrator 24.0.1, SVG Export Plug-In . SVG Version: 6.00 Build 0)  -->
<svg version="1.1" id="Layer_1" xmlns="http://www.w3.org/2000/svg" xmlns:xlink="http://www.w3.org/1999/xlink" x="0px" y="0px"
	 viewBox="0 0 44.6 44.6" style="enable-background:new 0 0 44.6 44.6;" xml:space="preserve">
<style type="text/css">
	.st0{fill:#EE3E3C;}
</style>
<path class="st0" d="M34.3,27V17c0-0.2,0-0.3,0-0.5C34.1,11.1,31.4,6.2,27,3.1v12.9c0,0.2,0,0.4,0,0.6v0c0,0.2,0,0.4,0,0.6V27H17
	c-0.1,0-0.3,0-0.4,0c-5.8,0-10.4-4.7-10.4-10.5S10.8,6.1,16.5,6.1l0,0c2.1,0,4.1,0.6,5.8,1.7V0.7c-1.7-0.5-3.4-0.8-5.2-0.8
	C7.6-0.1-0.1,7.6-0.1,17.1c0,0,0,0,0,0l0,0c0,9.3,7.3,16.9,16.6,17.2h1.1c0.8,0,1.6-0.1,2.4-0.2c-0.8,0.1-1.6,0.2-2.4,0.2H27v10.4
	h7.3V34.3h10.4V27L34.3,27z"/>
</svg>
